<svg width="648" height="633" viewBox="0 0 648 633" fill="none" xmlns="http://www.w3.org/2000/svg">
<g clip-path="url(#clip0_1_2)">
<path d="M411.146 142.174H236.636C232.659 142.179 228.847 143.761 226.035 146.573C223.223 149.385 221.641 153.197 221.636 157.174V545.024L219.636 545.634L176.826 558.744C174.797 559.362 172.606 559.151 170.733 558.155C168.86 557.16 167.459 555.462 166.836 553.434L39.4961 137.484C38.8764 135.455 39.0876 133.263 40.0833 131.39C41.079 129.516 42.7778 128.115 44.8062 127.494L110.776 107.294L302.026 48.7538L367.996 28.5538C369 28.2448 370.055 28.1368 371.101 28.2361C372.147 28.3353 373.162 28.6398 374.09 29.132C375.018 29.6243 375.84 30.2947 376.509 31.105C377.177 31.9152 377.679 32.8493 377.986 33.8538L410.536 140.174L411.146 142.174Z" fill="#F2F2F2"/>
<path d="M449.226 140.174L409.996 12.0338C409.343 9.89876 408.276 7.91324 406.856 6.19071C405.436 4.46819 403.69 3.04242 401.718 1.99488C399.747 0.94734 397.588 0.298544 395.366 0.0855958C393.143 -0.127353 390.901 0.0997176 388.766 0.753809L296.016 29.1438L104.776 87.6938L12.0264 116.094C7.71773 117.417 4.11001 120.395 1.99515 124.376C-0.119709 128.356 -0.568935 133.013 0.746098 137.324L134.826 575.254C135.894 578.734 138.05 581.78 140.976 583.945C143.903 586.11 147.446 587.28 151.086 587.284C152.771 587.285 154.447 587.032 156.056 586.534L219.636 567.074L221.636 566.454V564.364L219.636 564.974L155.466 584.624C151.663 585.783 147.555 585.387 144.044 583.521C140.533 581.656 137.905 578.474 136.736 574.674L2.66651 136.734C2.0876 134.851 1.88583 132.872 2.07276 130.911C2.25968 128.95 2.83161 127.045 3.75583 125.305C4.68005 123.565 5.93841 122.025 7.45881 120.772C8.9792 119.519 10.7318 118.578 12.6162 118.004L105.366 89.6038L296.606 31.0638L389.356 2.66383C390.786 2.22763 392.272 2.00522 393.766 2.00382C396.973 2.01103 400.094 3.04498 402.671 4.95425C405.248 6.86351 407.146 9.54776 408.086 12.6138L447.136 140.174L447.756 142.174H449.836L449.226 140.174Z" fill="#3F3D56"/>
<path d="M122.681 127.821C120.754 127.819 118.877 127.2 117.328 126.055C115.778 124.909 114.636 123.296 114.07 121.454L101.189 79.3823C100.843 78.2522 100.723 77.065 100.836 75.8884C100.949 74.7119 101.292 73.5691 101.847 72.5253C102.401 71.4815 103.156 70.5572 104.067 69.8051C104.979 69.053 106.03 68.4879 107.16 68.1421L283.099 14.2783C285.382 13.5818 287.847 13.8194 289.955 14.9388C292.062 16.0582 293.639 17.968 294.34 20.249L307.221 62.3213C307.917 64.6036 307.679 67.0689 306.559 69.1762C305.44 71.2835 303.531 72.8608 301.25 73.562L125.31 127.426C124.458 127.687 123.572 127.82 122.681 127.821Z" fill="#7244BB"/>
<path d="M190.154 44.9547C201.199 44.9547 210.154 36.0003 210.154 24.9547C210.154 13.909 201.199 4.95465 190.154 4.95465C179.108 4.95465 170.154 13.909 170.154 24.9547C170.154 36.0003 179.108 44.9547 190.154 44.9547Z" fill="#7244BB"/>
<path d="M190.154 37.6193C197.148 37.6193 202.818 31.9491 202.818 24.9547C202.818 17.9602 197.148 12.29 190.154 12.29C183.159 12.29 177.489 17.9602 177.489 24.9547C177.489 31.9491 183.159 37.6193 190.154 37.6193Z" fill="white"/>
<path d="M602.636 582.174H264.636C262.383 582.171 260.222 581.275 258.629 579.681C257.035 578.088 256.139 575.927 256.136 573.674V168.674C256.139 166.42 257.035 164.26 258.629 162.666C260.222 161.073 262.383 160.176 264.636 160.174H602.636C604.89 160.176 607.05 161.073 608.644 162.666C610.237 164.26 611.134 166.42 611.136 168.674V573.674C611.134 575.927 610.237 578.088 608.644 579.681C607.05 581.275 604.89 582.171 602.636 582.174Z" fill="#E6E6E6"/>
<path d="M447.136 140.174H236.636C232.13 140.18 227.809 141.973 224.622 145.16C221.436 148.347 219.643 152.667 219.636 157.174V564.974L221.636 564.364V157.174C221.641 153.197 223.223 149.385 226.035 146.573C228.847 143.761 232.659 142.179 236.636 142.174H447.756L447.136 140.174ZM630.636 140.174H236.636C232.13 140.18 227.809 141.973 224.622 145.16C221.436 148.347 219.643 152.667 219.636 157.174V615.174C219.643 619.681 221.436 624.001 224.622 627.188C227.809 630.374 232.13 632.167 236.636 632.174H630.636C635.143 632.167 639.463 630.374 642.65 627.188C645.837 624.001 647.63 619.681 647.636 615.174V157.174C647.63 152.667 645.837 148.347 642.65 145.16C639.463 141.973 635.143 140.18 630.636 140.174ZM645.636 615.174C645.631 619.151 644.05 622.963 641.238 625.775C638.426 628.587 634.613 630.169 630.636 630.174H236.636C232.659 630.169 228.847 628.587 226.035 625.775C223.223 622.963 221.641 619.151 221.636 615.174V157.174C221.641 153.197 223.223 149.385 226.035 146.573C228.847 143.761 232.659 142.179 236.636 142.174H630.636C634.613 142.179 638.426 143.761 641.238 146.573C644.05 149.385 645.631 153.197 645.636 157.174V615.174Z" fill="#3F3D56"/>
<path d="M525.636 184.174H341.636C339.25 184.171 336.963 183.222 335.275 181.535C333.588 179.848 332.639 177.56 332.636 175.174V131.174C332.639 128.788 333.588 126.5 335.276 124.813C336.963 123.126 339.25 122.177 341.636 122.174H525.636C528.023 122.177 530.31 123.126 531.997 124.813C533.685 126.5 534.634 128.788 534.636 131.174V175.174C534.634 177.56 533.685 179.848 531.997 181.535C530.31 183.222 528.023 184.171 525.636 184.174Z" fill="#7244BB"/>
<path d="M433.636 125.174C444.682 125.174 453.636 116.22 453.636 105.174C453.636 94.1281 444.682 85.1738 433.636 85.1738C422.591 85.1738 413.636 94.1281 413.636 105.174C413.636 116.22 422.591 125.174 433.636 125.174Z" fill="#7244BB"/>
<path d="M433.636 117.356C440.364 117.356 445.818 111.902 445.818 105.174C445.818 98.446 440.364 92.9919 433.636 92.9919C426.908 92.9919 421.454 98.446 421.454 105.174C421.454 111.902 426.908 117.356 433.636 117.356Z" fill="white"/>
<path d="M382.659 357.909C382.557 357.045 382.142 356.375 381.415 355.898C380.688 355.42 379.795 355.182 378.739 355.182C377.966 355.182 377.29 355.307 376.71 355.557C376.136 355.807 375.688 356.151 375.364 356.588C375.045 357.026 374.886 357.523 374.886 358.08C374.886 358.545 374.997 358.946 375.219 359.281C375.446 359.611 375.736 359.886 376.088 360.108C376.44 360.324 376.81 360.503 377.196 360.645C377.582 360.781 377.938 360.892 378.261 360.977L380.034 361.455C380.489 361.574 380.994 361.739 381.551 361.949C382.114 362.159 382.651 362.446 383.162 362.81C383.679 363.168 384.105 363.628 384.44 364.19C384.776 364.753 384.943 365.443 384.943 366.261C384.943 367.205 384.696 368.057 384.202 368.818C383.713 369.58 382.997 370.185 382.054 370.634C381.116 371.082 379.977 371.307 378.636 371.307C377.386 371.307 376.304 371.105 375.389 370.702C374.48 370.298 373.764 369.736 373.241 369.014C372.724 368.293 372.432 367.455 372.364 366.5H374.545C374.602 367.159 374.824 367.705 375.21 368.136C375.602 368.562 376.097 368.881 376.693 369.091C377.295 369.295 377.943 369.398 378.636 369.398C379.443 369.398 380.168 369.267 380.81 369.006C381.452 368.739 381.96 368.369 382.335 367.898C382.71 367.42 382.898 366.864 382.898 366.227C382.898 365.648 382.736 365.176 382.412 364.812C382.088 364.449 381.662 364.153 381.134 363.926C380.605 363.699 380.034 363.5 379.42 363.33L377.273 362.716C375.909 362.324 374.83 361.764 374.034 361.037C373.239 360.31 372.841 359.358 372.841 358.182C372.841 357.205 373.105 356.352 373.634 355.625C374.168 354.892 374.884 354.324 375.781 353.92C376.685 353.511 377.693 353.307 378.807 353.307C379.932 353.307 380.932 353.509 381.807 353.912C382.682 354.31 383.375 354.855 383.886 355.548C384.403 356.241 384.676 357.028 384.705 357.909H382.659ZM390.532 353.545V371H388.418V353.545H390.532ZM408.611 353.545V371H406.565L397.054 357.295H396.884V371H394.77V353.545H396.815L406.361 367.284H406.531V353.545H408.611ZM424.977 371H419.59V353.545H425.215C426.908 353.545 428.357 353.895 429.562 354.594C430.766 355.287 431.69 356.284 432.332 357.585C432.974 358.881 433.295 360.432 433.295 362.239C433.295 364.057 432.971 365.622 432.323 366.935C431.675 368.241 430.732 369.247 429.494 369.952C428.255 370.651 426.749 371 424.977 371ZM421.704 369.125H424.84C426.283 369.125 427.479 368.847 428.428 368.29C429.377 367.733 430.085 366.94 430.55 365.912C431.016 364.884 431.249 363.659 431.249 362.239C431.249 360.83 431.019 359.616 430.559 358.599C430.099 357.577 429.411 356.793 428.496 356.247C427.582 355.696 426.442 355.42 425.079 355.42H421.704V369.125ZM436.736 371H434.52L440.929 353.545H443.111L449.52 371H447.304L442.088 356.307H441.952L436.736 371ZM437.554 364.182H446.486V366.057H437.554V364.182ZM449.245 355.42V353.545H462.336V355.42H456.847V371H454.734V355.42H449.245ZM479.599 362.273C479.599 364.114 479.266 365.705 478.602 367.045C477.937 368.386 477.025 369.42 475.866 370.148C474.707 370.875 473.383 371.239 471.894 371.239C470.406 371.239 469.082 370.875 467.923 370.148C466.763 369.42 465.852 368.386 465.187 367.045C464.522 365.705 464.19 364.114 464.19 362.273C464.19 360.432 464.522 358.841 465.187 357.5C465.852 356.159 466.763 355.125 467.923 354.398C469.082 353.67 470.406 353.307 471.894 353.307C473.383 353.307 474.707 353.67 475.866 354.398C477.025 355.125 477.937 356.159 478.602 357.5C479.266 358.841 479.599 360.432 479.599 362.273ZM477.553 362.273C477.553 360.761 477.3 359.486 476.795 358.446C476.295 357.406 475.616 356.619 474.758 356.085C473.906 355.551 472.951 355.284 471.894 355.284C470.837 355.284 469.88 355.551 469.022 356.085C468.17 356.619 467.491 357.406 466.985 358.446C466.485 359.486 466.235 360.761 466.235 362.273C466.235 363.784 466.485 365.06 466.985 366.099C467.491 367.139 468.17 367.926 469.022 368.46C469.88 368.994 470.837 369.261 471.894 369.261C472.951 369.261 473.906 368.994 474.758 368.46C475.616 367.926 476.295 367.139 476.795 366.099C477.3 365.06 477.553 363.784 477.553 362.273ZM492.698 357.909C492.596 357.045 492.181 356.375 491.454 355.898C490.727 355.42 489.835 355.182 488.778 355.182C488.005 355.182 487.329 355.307 486.749 355.557C486.175 355.807 485.727 356.151 485.403 356.588C485.085 357.026 484.925 357.523 484.925 358.08C484.925 358.545 485.036 358.946 485.258 359.281C485.485 359.611 485.775 359.886 486.127 360.108C486.479 360.324 486.849 360.503 487.235 360.645C487.621 360.781 487.977 360.892 488.3 360.977L490.073 361.455C490.528 361.574 491.033 361.739 491.59 361.949C492.153 362.159 492.69 362.446 493.201 362.81C493.718 363.168 494.144 363.628 494.479 364.19C494.815 364.753 494.982 365.443 494.982 366.261C494.982 367.205 494.735 368.057 494.241 368.818C493.752 369.58 493.036 370.185 492.093 370.634C491.156 371.082 490.016 371.307 488.675 371.307C487.425 371.307 486.343 371.105 485.428 370.702C484.519 370.298 483.803 369.736 483.281 369.014C482.763 368.293 482.471 367.455 482.403 366.5H484.585C484.641 367.159 484.863 367.705 485.249 368.136C485.641 368.562 486.136 368.881 486.732 369.091C487.335 369.295 487.982 369.398 488.675 369.398C489.482 369.398 490.207 369.267 490.849 369.006C491.491 368.739 491.999 368.369 492.374 367.898C492.749 367.42 492.937 366.864 492.937 366.227C492.937 365.648 492.775 365.176 492.451 364.812C492.127 364.449 491.701 364.153 491.173 363.926C490.644 363.699 490.073 363.5 489.46 363.33L487.312 362.716C485.948 362.324 484.869 361.764 484.073 361.037C483.278 360.31 482.88 359.358 482.88 358.182C482.88 357.205 483.144 356.352 483.673 355.625C484.207 354.892 484.923 354.324 485.82 353.92C486.724 353.511 487.732 353.307 488.846 353.307C489.971 353.307 490.971 353.509 491.846 353.912C492.721 354.31 493.414 354.855 493.925 355.548C494.442 356.241 494.715 357.028 494.744 357.909H492.698Z" fill="black"/>
</g>
<defs>
<clipPath id="clip0_1_2">
<rect width="647.636" height="632.174" fill="white"/>
</clipPath>
</defs>
</svg>
